<svg width="56" height="58" viewBox="0 0 56 58" fill="none" xmlns="http://www.w3.org/2000/svg">
<mask id="mask0_229_2" style="mask-type:luminance" maskUnits="userSpaceOnUse" x="5" y="5" width="28" height="44">
<path d="M5.15869 5.19678H32.3161V48.1809H5.15869V5.19678Z" fill="white"/>
</mask>
<g mask="url(#mask0_229_2)">
<path d="M5.27148 26.6455C5.27148 38.4698 15.2352 48.0895 27.4822 48.0895L31.9246 26.6455L27.4822 5.19995C15.2352 5.19995 5.27148 14.8197 5.27148 26.6455Z" fill="#ECF9FB"/>
</g>
<mask id="mask1_229_2" style="mask-type:luminance" maskUnits="userSpaceOnUse" x="27" y="5" width="23" height="44">
<path d="M27.3027 5.19678H49.8643V48.1809H27.3027V5.19678Z" fill="white"/>
</mask>
<g mask="url(#mask1_229_2)">
<path d="M27.4824 5.19995V48.0895C39.731 48.0895 49.6947 38.4698 49.6947 26.6455C49.6947 14.8197 39.731 5.19995 27.4824 5.19995Z" fill="#D5E7F6"/>
</g>
<path d="M24.1514 25.573C19.864 25.573 16.3779 28.4578 16.3779 32.0056C16.3779 36.7328 22.3578 39.838 27.4825 37.8177L28.9644 31.0765L27.4825 26.195C26.4722 25.7966 25.3428 25.573 24.1514 25.573Z" fill="#DA45C6"/>
<path d="M29.9778 14.8668L27.4824 14.5676V37.8178C30.1068 36.7832 31.9249 34.5677 31.9249 32.0056V19.8271C33.0037 20.3625 33.8246 21.1703 34.3811 22.2426L38.3536 20.3247C37.2323 18.1579 34.8675 15.451 29.9778 14.8668Z" fill="#8E4DD5"/>
</svg>
